<svg xmlns="http://www.w3.org/2000/svg" xmlns:xlink="http://www.w3.org/1999/xlink" width="40" zoomAndPan="magnify" viewBox="0 0 30 30.000001" height="40" preserveAspectRatio="xMidYMid meet" version="1.0"><defs><clipPath id="afc07126e3"><path d="M 7.984375 7.269531 L 22.804688 7.269531 L 22.804688 21.949219 L 7.984375 21.949219 Z M 7.984375 7.269531 " clip-rule="nonzero"/></clipPath><clipPath id="7955ad8412"><path d="M 21.292969 16.050781 C 19.785156 17.582031 18.832031 19.207031 18.832031 19.207031 C 17.878906 20.832031 15.90625 21.390625 15.90625 21.390625 C 13.929688 21.949219 12.074219 20.996094 12.074219 20.996094 C 10.214844 20.042969 9.101562 18.300781 9.101562 18.300781 C 7.984375 16.558594 7.984375 14.515625 7.984375 14.515625 C 7.984375 12.472656 8.613281 10.171875 8.613281 10.171875 C 9.238281 7.875 11.609375 7.570312 11.609375 7.570312 C 13.976562 7.269531 15.648438 8.339844 15.648438 8.339844 C 17.324219 9.40625 19.273438 9.964844 19.273438 9.964844 C 21.222656 10.519531 22.015625 12.519531 22.015625 12.519531 C 22.804688 14.515625 21.292969 16.050781 21.292969 16.050781 Z M 21.292969 16.050781 " clip-rule="nonzero"/></clipPath></defs><g clip-path="url(#afc07126e3)"><g clip-path="url(#7955ad8412)"><path fill="#8b3dff" d="M 5.710938 5.226562 L 24.289062 5.226562 L 24.289062 23.804688 L 5.710938 23.804688 Z M 5.710938 5.226562 " fill-opacity="1" fill-rule="nonzero"/></g></g></svg>